<svg width="44" height="44" viewBox="0 0 44 44" fill="none" xmlns="http://www.w3.org/2000/svg">
<path d="M34.8896 4H8.98069C6.23512 4 4 6.24321 4 8.99871V35.0013C4 37.7568 6.23512 40 8.98069 40H34.8896C37.6351 40 39.8702 37.7568 39.8702 35.0013V17.4981C39.8702 17.0479 39.5068 16.6831 39.0582 16.6831C38.6096 16.6831 38.2461 17.0479 38.2461 17.4981V35.0091C38.2461 36.8642 36.738 38.3778 34.8896 38.3778H8.98069C7.13227 38.3778 5.62417 36.8642 5.62417 35.0091V9.00647C5.62417 7.15136 7.13227 5.63778 8.98069 5.63778H34.8896C36.738 5.63778 38.2461 7.15136 38.2461 9.00647V10.3648C38.2461 10.815 38.6096 11.1798 39.0582 11.1798C39.5068 11.1798 39.8702 10.815 39.8702 10.3648V9.00647C39.8702 6.24321 37.6351 4 34.8896 4Z" fill="#060F26"/>
<path d="M39.8699 10.3645C39.8699 10.8146 39.5064 11.1801 39.0578 11.1801L38.8949 11.1637C38.5246 11.0879 38.2457 10.7585 38.2457 10.3645V9.00625C38.2456 7.26708 36.9205 5.82762 35.2316 5.65469L34.8895 5.63828H8.98047L8.63828 5.65469C6.94964 5.82778 5.62433 7.2672 5.62422 9.00625V35.009L5.6418 35.3523C5.80265 36.9343 7.06208 38.199 8.63828 38.3605L8.98047 38.3781H34.8895L35.2316 38.3605C36.9205 38.1876 38.2457 36.7482 38.2457 35.009V17.4977C38.2459 17.0478 38.6096 16.6834 39.0578 16.6832C39.5063 16.6832 39.8697 17.0476 39.8699 17.4977V35.0008C39.8699 37.7563 37.635 40 34.8895 40H8.98047C6.235 39.9999 4 37.7562 4 35.0008V8.99922C4 6.24379 6.235 4.00012 8.98047 4H34.8895C37.6349 4 39.8698 6.24309 39.8699 9.00625V10.3645Z" fill="#060F26"/>
<path d="M20.3213 26.1878V16.9124C20.3213 16.2497 20.8585 15.7124 21.5213 15.7124C22.184 15.7124 22.7213 16.2497 22.7213 16.9124V26.1878C22.7211 26.8504 22.1839 27.3878 21.5213 27.3878C20.8587 27.3878 20.3215 26.8504 20.3213 26.1878Z" fill="#060F26"/>
<path d="M26.1426 20.3501C26.8053 20.3501 27.3426 20.8874 27.3426 21.5501C27.3426 22.2128 26.8053 22.7501 26.1426 22.7501H16.9012C16.2384 22.7501 15.7012 22.2128 15.7012 21.5501C15.7012 20.8874 16.2384 20.3501 16.9012 20.3501H26.1426Z" fill="#060F26"/>
<path d="M39.1881 12.3999C38.7395 12.3999 38.376 12.7647 38.376 13.2149V14.6819C38.376 15.1321 38.7395 15.4969 39.1881 15.4969C39.6367 15.4969 40.0001 15.1321 40.0001 14.6819V13.2149C40.0001 12.7647 39.6367 12.3999 39.1881 12.3999Z" fill="#060F26"/>
<path d="M40.0001 14.6814L39.9837 14.8466C39.9078 15.2177 39.5803 15.4969 39.188 15.4969L39.024 15.4805C38.6541 15.4044 38.376 15.0752 38.376 14.6814V13.2143C38.3763 12.7644 38.7397 12.3999 39.188 12.3999C39.6364 12.3999 39.9998 12.7644 40.0001 13.2143V14.6814Z" fill="#060F26"/>
</svg>
