<svg width="16" height="16" viewBox="0 0 16 16" fill="none" xmlns="http://www.w3.org/2000/svg">
<path fill-rule="evenodd" clip-rule="evenodd" d="M2.52477 2.52477C2.72447 2.32508 3.04825 2.32508 3.24795 2.52477L8 7.27682L12.752 2.52477C12.9517 2.32508 13.2755 2.32508 13.4752 2.52477C13.6749 2.72447 13.6749 3.04825 13.4752 3.24795L8.72318 8L13.4752 12.752C13.6749 12.9517 13.6749 13.2755 13.4752 13.4752C13.2755 13.6749 12.9517 13.6749 12.752 13.4752L8 8.72318L3.24795 13.4752C3.04825 13.6749 2.72447 13.6749 2.52477 13.4752C2.32508 13.2755 2.32508 12.9517 2.52477 12.752L7.27682 8L2.52477 3.24795C2.32508 3.04825 2.32508 2.72447 2.52477 2.52477Z" fill="#7B3F0A" stroke="#7B3F0A" stroke-width="0.3" stroke-linecap="round" stroke-linejoin="round"/>
</svg>
